<!DOCTYPE svg PUBLIC "-//W3C//DTD SVG 1.1//EN" "http://www.w3.org/Graphics/SVG/1.1/DTD/svg11.dtd">
<!-- Uploaded to: SVG Repo, www.svgrepo.com, Transformed by: SVG Repo Mixer Tools -->
<svg width="800px" height="800px" viewBox="-6 -6 36.00 36.00" fill="none" xmlns="http://www.w3.org/2000/svg">
<g id="SVGRepo_bgCarrier" stroke-width="0" transform="translate(0,0), scale(1)">
<rect x="-6" y="-6" width="36.00" height="36.00" rx="18" fill="#ff3232" strokewidth="0"/>
</g>
<g id="SVGRepo_tracerCarrier" stroke-linecap="round" stroke-linejoin="round" stroke="#CCCCCC" stroke-width="0.336"/>
<g id="SVGRepo_iconCarrier"> <path d="M20.8 14.2222H3.65383C3.38535 14.2222 3.14955 14.4005 3.07648 14.6589L1.71969 19.4556C1.35863 20.7321 2.31762 22 3.64418 22H20.3558C21.6824 22 22.6414 20.7321 22.2803 19.4556L20.8 14.2222ZM20.8 14.2222V8.11108" stroke="#000000" stroke-width="2.4" stroke-linecap="round" stroke-linejoin="round"/> <path d="M3.19995 14.2222V4C3.19995 2.89543 4.09538 2 5.19995 2H12" stroke="#000000" stroke-width="2.4" stroke-linecap="round" stroke-linejoin="round"/> <path d="M11 19L13 19" stroke="#000000" stroke-width="2.4" stroke-linecap="round" stroke-linejoin="round"/> <path d="M17.6569 4.82837L14.8284 7.6568" stroke="#000000" stroke-width="2.4" stroke-linecap="round" stroke-linejoin="round"/> <path d="M20.4853 4.82843C19.7042 5.60948 18.4379 5.60948 17.6569 4.82843C16.8758 4.04738 16.8758 2.78105 17.6569 2" stroke="#000000" stroke-width="2.4" stroke-linecap="round" stroke-linejoin="round"/> <path d="M14.8284 10.4853C15.6094 9.70427 15.6094 8.43794 14.8284 7.65689C14.0473 6.87584 12.781 6.87584 12 7.65689" stroke="#000000" stroke-width="2.4" stroke-linecap="round" stroke-linejoin="round"/> </g>
</svg>